<mxfile host="app.diagrams.net" modified="2024-01-25T04:25:34.368Z" agent="Mozilla/5.0 (X11; Linux x86_64) AppleWebKit/537.36 (KHTML, like Gecko) Chrome/120.0.0.0 Safari/537.36 Edg/120.0.0.0" etag="-uqAmNABB9R1lHr6NwPi" version="23.0.1" type="github">
  <diagram name="Page-1" id="7uRCiuog1mk2qN9GTLL4">
    <mxGraphModel dx="979" dy="571" grid="1" gridSize="10" guides="1" tooltips="1" connect="1" arrows="1" fold="1" page="1" pageScale="1" pageWidth="850" pageHeight="1100" math="0" shadow="0">
      <root>
        <mxCell id="0" />
        <mxCell id="1" parent="0" />
        <mxCell id="V48fH8HrcHqh1vlUktkR-19" style="edgeStyle=orthogonalEdgeStyle;rounded=0;orthogonalLoop=1;jettySize=auto;html=1;" edge="1" parent="1" source="V48fH8HrcHqh1vlUktkR-2" target="V48fH8HrcHqh1vlUktkR-18">
          <mxGeometry relative="1" as="geometry">
            <mxPoint x="60" y="217.5" as="sourcePoint" />
          </mxGeometry>
        </mxCell>
        <mxCell id="V48fH8HrcHqh1vlUktkR-2" value="User" style="shape=umlActor;verticalLabelPosition=bottom;verticalAlign=top;html=1;" vertex="1" parent="1">
          <mxGeometry y="182.5" width="30" height="60" as="geometry" />
        </mxCell>
        <mxCell id="V48fH8HrcHqh1vlUktkR-4" value="Input Budget yang di inginkan" style="shape=parallelogram;perimeter=parallelogramPerimeter;whiteSpace=wrap;html=1;fixedSize=1;" vertex="1" parent="1">
          <mxGeometry x="220" y="182.5" width="140" height="60" as="geometry" />
        </mxCell>
        <mxCell id="V48fH8HrcHqh1vlUktkR-5" value="Memilih preferensi kebutuhan" style="shape=parallelogram;perimeter=parallelogramPerimeter;whiteSpace=wrap;html=1;fixedSize=1;" vertex="1" parent="1">
          <mxGeometry x="410" y="182.5" width="210" height="60" as="geometry" />
        </mxCell>
        <mxCell id="V48fH8HrcHqh1vlUktkR-6" value="" style="endArrow=classic;html=1;rounded=0;entryX=0;entryY=0.5;entryDx=0;entryDy=0;" edge="1" parent="1" source="V48fH8HrcHqh1vlUktkR-18" target="V48fH8HrcHqh1vlUktkR-4">
          <mxGeometry width="50" height="50" relative="1" as="geometry">
            <mxPoint x="110" y="122.5" as="sourcePoint" />
            <mxPoint x="310" y="122.5" as="targetPoint" />
          </mxGeometry>
        </mxCell>
        <mxCell id="V48fH8HrcHqh1vlUktkR-7" value="" style="endArrow=classic;html=1;rounded=0;" edge="1" parent="1" source="V48fH8HrcHqh1vlUktkR-4">
          <mxGeometry width="50" height="50" relative="1" as="geometry">
            <mxPoint x="400" y="262.5" as="sourcePoint" />
            <mxPoint x="420" y="212.5" as="targetPoint" />
          </mxGeometry>
        </mxCell>
        <mxCell id="V48fH8HrcHqh1vlUktkR-8" value="Masuk dalam filter system web sehingga menimbulkan request" style="rounded=0;whiteSpace=wrap;html=1;" vertex="1" parent="1">
          <mxGeometry x="420" y="280" width="120" height="60" as="geometry" />
        </mxCell>
        <mxCell id="V48fH8HrcHqh1vlUktkR-11" value="Input misal&amp;nbsp;&lt;br&gt;3.000.000 Rupiah" style="shape=callout;whiteSpace=wrap;html=1;perimeter=calloutPerimeter;" vertex="1" parent="1">
          <mxGeometry x="250" y="92.5" width="120" height="80" as="geometry" />
        </mxCell>
        <mxCell id="V48fH8HrcHqh1vlUktkR-12" value="memilih opsi kebutuhan yang tersedia seperti gaming, rendering, dll" style="shape=callout;whiteSpace=wrap;html=1;perimeter=calloutPerimeter;" vertex="1" parent="1">
          <mxGeometry x="440" y="87.5" width="170" height="90" as="geometry" />
        </mxCell>
        <mxCell id="V48fH8HrcHqh1vlUktkR-13" value="" style="endArrow=classic;html=1;rounded=0;exitX=0.5;exitY=1;exitDx=0;exitDy=0;entryX=-0.032;entryY=0.398;entryDx=0;entryDy=0;entryPerimeter=0;" edge="1" parent="1" source="V48fH8HrcHqh1vlUktkR-4" target="V48fH8HrcHqh1vlUktkR-8">
          <mxGeometry width="50" height="50" relative="1" as="geometry">
            <mxPoint x="430" y="272.5" as="sourcePoint" />
            <mxPoint x="480" y="222.5" as="targetPoint" />
          </mxGeometry>
        </mxCell>
        <mxCell id="V48fH8HrcHqh1vlUktkR-14" value="" style="endArrow=classic;html=1;rounded=0;entryX=0.565;entryY=-0.002;entryDx=0;entryDy=0;entryPerimeter=0;exitX=0.346;exitY=0.983;exitDx=0;exitDy=0;exitPerimeter=0;" edge="1" parent="1" source="V48fH8HrcHqh1vlUktkR-5" target="V48fH8HrcHqh1vlUktkR-8">
          <mxGeometry width="50" height="50" relative="1" as="geometry">
            <mxPoint x="430" y="312.5" as="sourcePoint" />
            <mxPoint x="480" y="262.5" as="targetPoint" />
          </mxGeometry>
        </mxCell>
        <mxCell id="V48fH8HrcHqh1vlUktkR-24" style="edgeStyle=orthogonalEdgeStyle;rounded=0;orthogonalLoop=1;jettySize=auto;html=1;" edge="1" parent="1" source="V48fH8HrcHqh1vlUktkR-15" target="V48fH8HrcHqh1vlUktkR-23">
          <mxGeometry relative="1" as="geometry" />
        </mxCell>
        <mxCell id="V48fH8HrcHqh1vlUktkR-15" value="Fetching &amp;amp; scraping data dari market place" style="rounded=0;whiteSpace=wrap;html=1;" vertex="1" parent="1">
          <mxGeometry x="610" y="250" width="120" height="60" as="geometry" />
        </mxCell>
        <mxCell id="V48fH8HrcHqh1vlUktkR-16" value="Marketplace Opensource API" style="ellipse;shape=cloud;whiteSpace=wrap;html=1;" vertex="1" parent="1">
          <mxGeometry x="620" y="120" width="250" height="107.5" as="geometry" />
        </mxCell>
        <mxCell id="V48fH8HrcHqh1vlUktkR-17" value="database" style="shape=cylinder3;whiteSpace=wrap;html=1;boundedLbl=1;backgroundOutline=1;size=15;" vertex="1" parent="1">
          <mxGeometry x="120" y="30" width="60" height="80" as="geometry" />
        </mxCell>
        <mxCell id="V48fH8HrcHqh1vlUktkR-27" style="edgeStyle=orthogonalEdgeStyle;rounded=0;orthogonalLoop=1;jettySize=auto;html=1;exitX=0.5;exitY=1;exitDx=0;exitDy=0;" edge="1" parent="1" source="V48fH8HrcHqh1vlUktkR-18">
          <mxGeometry relative="1" as="geometry">
            <mxPoint x="140.33333333333337" y="230" as="targetPoint" />
          </mxGeometry>
        </mxCell>
        <mxCell id="V48fH8HrcHqh1vlUktkR-18" value="Login / register" style="rounded=0;whiteSpace=wrap;html=1;" vertex="1" parent="1">
          <mxGeometry x="80" y="182.5" width="120" height="60" as="geometry" />
        </mxCell>
        <mxCell id="V48fH8HrcHqh1vlUktkR-21" value="" style="endArrow=classic;html=1;rounded=0;entryX=0;entryY=0.5;entryDx=0;entryDy=0;exitX=1.018;exitY=0.576;exitDx=0;exitDy=0;exitPerimeter=0;" edge="1" parent="1" source="V48fH8HrcHqh1vlUktkR-8" target="V48fH8HrcHqh1vlUktkR-15">
          <mxGeometry width="50" height="50" relative="1" as="geometry">
            <mxPoint x="480" y="380" as="sourcePoint" />
            <mxPoint x="530" y="330" as="targetPoint" />
          </mxGeometry>
        </mxCell>
        <mxCell id="V48fH8HrcHqh1vlUktkR-22" value="" style="endArrow=classic;startArrow=classic;html=1;rounded=0;entryX=0.16;entryY=0.55;entryDx=0;entryDy=0;entryPerimeter=0;" edge="1" parent="1" source="V48fH8HrcHqh1vlUktkR-15" target="V48fH8HrcHqh1vlUktkR-16">
          <mxGeometry width="50" height="50" relative="1" as="geometry">
            <mxPoint x="670" y="390" as="sourcePoint" />
            <mxPoint x="775" y="353" as="targetPoint" />
          </mxGeometry>
        </mxCell>
        <mxCell id="V48fH8HrcHqh1vlUktkR-23" value="Machine learning / AI memilah mana data yang tepat menggunakan algoritma decision tree" style="rounded=0;whiteSpace=wrap;html=1;" vertex="1" parent="1">
          <mxGeometry x="565" y="340" width="210" height="60" as="geometry" />
        </mxCell>
        <mxCell id="V48fH8HrcHqh1vlUktkR-26" value="Output berupa komponen yang diinginkan beserta URL marketplace" style="ellipse;whiteSpace=wrap;html=1;" vertex="1" parent="1">
          <mxGeometry x="100" y="320" width="150" height="100" as="geometry" />
        </mxCell>
        <mxCell id="V48fH8HrcHqh1vlUktkR-29" value="" style="endArrow=classic;startArrow=classic;html=1;rounded=0;entryX=0.5;entryY=1;entryDx=0;entryDy=0;entryPerimeter=0;" edge="1" parent="1" source="V48fH8HrcHqh1vlUktkR-18" target="V48fH8HrcHqh1vlUktkR-17">
          <mxGeometry width="50" height="50" relative="1" as="geometry">
            <mxPoint x="260" y="230" as="sourcePoint" />
            <mxPoint x="310" y="180" as="targetPoint" />
          </mxGeometry>
        </mxCell>
        <mxCell id="V48fH8HrcHqh1vlUktkR-30" value="" style="endArrow=classic;html=1;rounded=0;" edge="1" parent="1" source="V48fH8HrcHqh1vlUktkR-23" target="V48fH8HrcHqh1vlUktkR-26">
          <mxGeometry width="50" height="50" relative="1" as="geometry">
            <mxPoint x="460" y="370" as="sourcePoint" />
            <mxPoint x="510" y="320" as="targetPoint" />
          </mxGeometry>
        </mxCell>
        <mxCell id="V48fH8HrcHqh1vlUktkR-31" value="" style="endArrow=classic;html=1;rounded=0;" edge="1" parent="1" source="V48fH8HrcHqh1vlUktkR-26" target="V48fH8HrcHqh1vlUktkR-2">
          <mxGeometry width="50" height="50" relative="1" as="geometry">
            <mxPoint x="170" y="330" as="sourcePoint" />
            <mxPoint x="220" y="280" as="targetPoint" />
          </mxGeometry>
        </mxCell>
      </root>
    </mxGraphModel>
  </diagram>
</mxfile>
